<svg xmlns="http://www.w3.org/2000/svg" viewBox="0 0 512 512" width="512" height="512">
  <rect width="512" height="512" rx="104" ry="104" fill="#070708"/>
  <rect x="6" y="6" width="500" height="500" rx="100" ry="100" fill="none" stroke="#2a2d31" stroke-width="2"/>
  <g transform="translate(76.00,109.08) scale(0.37383)">
    <path fill-rule="evenodd" fill="#d7dade" d="M131.0,562.0 L140.0,582.0 L150.0,599.0 L167.0,624.0 L182.0,643.0 L219.0,681.0 L253.0,708.0 L271.0,720.0 L301.0,737.0 L348.0,757.0 L389.0,769.0 L415.0,774.0 L452.0,778.0 L509.0,777.0 L558.0,769.0 L591.0,760.0 L618.0,750.0 L670.0,724.0 L696.0,707.0 L713.0,694.0 L744.0,666.0 L759.0,650.0 L790.0,610.0 L816.0,564.0 L816.0,562.0 L770.0,562.0 L743.0,599.0 L726.0,618.0 L705.0,638.0 L688.0,652.0 L664.0,669.0 L644.0,681.0 L618.0,694.0 L582.0,708.0 L539.0,719.0 L503.0,724.0 L459.0,725.0 L458.0,724.0 L442.0,724.0 L425.0,722.0 L388.0,715.0 L352.0,704.0 L325.0,693.0 L283.0,670.0 L247.0,644.0 L229.0,628.0 L208.0,606.0 L193.0,588.0 L175.0,562.0 Z M704.0,301.0 L684.0,323.0 L670.0,348.0 L663.0,370.0 L660.0,391.0 L661.0,417.0 L665.0,435.0 L674.0,458.0 L690.0,482.0 L706.0,498.0 L726.0,512.0 L743.0,520.0 L763.0,526.0 L796.0,530.0 L902.0,530.0 L904.0,529.0 L936.0,476.0 L938.0,469.0 L789.0,469.0 L771.0,464.0 L753.0,453.0 L743.0,443.0 L734.0,429.0 L728.0,410.0 L728.0,388.0 L733.0,371.0 L743.0,355.0 L758.0,341.0 L779.0,331.0 L795.0,328.0 L914.0,328.0 L955.0,270.0 L955.0,267.0 L797.0,267.0 L796.0,268.0 L773.0,269.0 L755.0,273.0 L734.0,281.0 L723.0,287.0 Z M378.0,268.0 L378.0,529.0 L379.0,530.0 L447.0,530.0 L448.0,529.0 L448.0,423.0 L449.0,422.0 L453.0,422.0 L589.0,530.0 L685.0,530.0 L684.0,527.0 L637.0,487.0 L527.0,401.0 L527.0,397.0 L531.0,393.0 L638.0,311.0 L684.0,270.0 L684.0,268.0 L681.0,267.0 L673.0,268.0 L593.0,267.0 L588.0,270.0 L561.0,294.0 L454.0,376.0 L448.0,375.0 L448.0,268.0 L447.0,267.0 L384.0,267.0 Z M32.0,269.0 L10.0,322.0 L9.0,328.0 L228.0,328.0 L241.0,334.0 L250.0,345.0 L253.0,354.0 L253.0,366.0 L246.0,381.0 L238.0,388.0 L228.0,392.0 L9.0,392.0 L8.0,393.0 L8.0,529.0 L9.0,530.0 L74.0,530.0 L75.0,529.0 L75.0,451.0 L82.0,449.0 L102.0,449.0 L103.0,450.0 L169.0,450.0 L174.0,449.0 L257.0,530.0 L348.0,530.0 L348.0,528.0 L267.0,444.0 L268.0,438.0 L285.0,430.0 L305.0,412.0 L317.0,392.0 L323.0,371.0 L324.0,349.0 L322.0,336.0 L317.0,320.0 L310.0,307.0 L296.0,291.0 L275.0,277.0 L258.0,271.0 L242.0,268.0 L228.0,268.0 L227.0,267.0 L34.0,267.0 Z M130.0,220.0 L130.0,223.0 L173.0,223.0 L179.0,213.0 L198.0,188.0 L234.0,151.0 L275.0,120.0 L297.0,107.0 L321.0,95.0 L360.0,80.0 L398.0,70.0 L421.0,66.0 L452.0,63.0 L491.0,63.0 L522.0,66.0 L550.0,71.0 L580.0,79.0 L619.0,94.0 L648.0,109.0 L669.0,122.0 L704.0,149.0 L740.0,185.0 L759.0,209.0 L768.0,223.0 L815.0,223.0 L797.0,187.0 L778.0,159.0 L760.0,137.0 L724.0,101.0 L707.0,87.0 L683.0,70.0 L658.0,55.0 L628.0,40.0 L591.0,26.0 L543.0,14.0 L492.0,8.0 L440.0,9.0 L388.0,17.0 L361.0,24.0 L329.0,35.0 L308.0,44.0 L274.0,62.0 L252.0,76.0 L228.0,94.0 L189.0,131.0 L169.0,155.0 L151.0,181.0 Z"/>
  </g>
</svg>